<?xml version="1.0" encoding="utf-8"?>
<svg version="1.1" id="Capa_1" xmlns="http://www.w3.org/2000/svg" xmlns:xlink="http://www.w3.org/1999/xlink" x="0px" y="0px"
	 viewBox="0 0 200 42" style="enable-background:new 0 0 200 42;" xml:space="preserve">
<style type="text/css">
	.st0{fill:#0000FF;}
</style>
<g>
	<path class="st0" d="M12.5,11.9c-2.9,0-5.3,0.9-7.3,2.6c-1.9,1.7-2.9,3.3-2.9,4.8c0,0.6,0.4,1.1,1.1,1.1h2.4c0.4,0,0.8-0.4,1.1-1
		c0.7-1.9,2.7-3.3,5.6-3.3c3.4,0,5.7,2.5,5.7,5.5v1.5l-8,0.5c-2.7,0.2-4.9,1.1-6.8,3c-1.9,1.8-2.8,3.9-2.8,6.4c0,2.6,1,4.8,3,6.5
		c1.9,1.7,4.3,2.6,7.2,2.6c1.6,0,2.9-0.3,4.2-0.9c1.3-0.6,2.1-1.1,2.5-1.4c0.4-0.4,0.7-0.6,0.9-0.9v1.5c0,0.7,0.4,1.1,1.3,1.1h1.9
		c0.9,0,1.3-0.4,1.3-1.1V21.4C22.9,15.9,19.2,11.9,12.5,11.9z M18.2,32.3c0,1.3-0.7,2.6-2.1,3.8c-1.3,1.1-3.1,1.8-5.1,1.8
		c-3.2,0-5.7-2.2-5.7-5s2.3-4.9,5.3-5.1l7.6-0.5V32.3z"/>
	<path class="st0" d="M49.8,12.5h-1.9c-0.9,0-1.3,0.4-1.3,1.1v9.5c0,0.3-0.1,0.6-0.2,0.9l-5,13.9h-1.2l-5-13.9
		C35,23.6,35,23.4,35,23.1v-9.5c0-0.7-0.4-1.1-1.3-1.1h-1.9c-0.9,0-1.3,0.4-1.3,1.1v9.4c0,0.4,0.1,0.7,0.2,1l6,16.5
		c0.2,0.6,0.7,1,1.4,1h5.6c0.7,0,1.1-0.4,1.4-1l6-16.5c0.1-0.3,0.2-0.6,0.2-1v-9.4C51.2,12.8,50.7,12.5,49.8,12.5z"/>
	<path class="st0" d="M69.8,11.9c-3.4,0-6.2,1.1-8.3,3.1c-2.1,2-3.2,4.6-3.2,7.5v8.8c0,3,1.1,5.6,3.2,7.7c2.1,2,5,3.1,8.3,3.1
		S75.9,41,78,39c2.1-2.1,3.3-4.6,3.3-7.6v-8.8c0-3-1.1-5.5-3.3-7.5C75.9,13,73.1,11.9,69.8,11.9z M76.5,31.6c0,3.4-2.6,6.3-6.7,6.3
		c-4.1,0-6.8-2.8-6.8-6.3v-9.3c0-3.5,2.7-6.3,6.8-6.3c4.1,0,6.7,2.8,6.7,6.3V31.6z"/>
	<path class="st0" d="M109.5,31.8h-2.7c-0.6,0-1,0.4-1.1,1c-0.3,2.5-2.6,5.1-6.3,5.1c-4.1,0-6.8-2.8-6.8-6.3v-9.2
		c0-3.5,2.8-6.3,6.8-6.3c4.8,0,5.9,3.5,6.1,5.1c0.1,0.6,0.4,1,1.1,1h2.7c0.5,0,1.1-0.4,1.1-1.1c0-3.1-2.7-9.3-10.9-9.3
		c-3.4,0-6.1,1.1-8.3,3.1C89,17,88,19.5,88,22.5v8.8c0,2.9,1.1,5.4,3.1,7.5c2.1,2.1,4.9,3.2,8.3,3.2c3.4,0,6.1-1.1,8.1-3.1
		c2-2,3-4.1,3-6.1C110.6,32.2,110.1,31.8,109.5,31.8z"/>
	<path class="st0" d="M129,11.9c-2.9,0-5.3,0.9-7.3,2.6c-1.9,1.7-2.9,3.3-2.9,4.8c0,0.6,0.4,1.1,1.1,1.1h2.4c0.4,0,0.8-0.4,1.1-1
		c0.7-1.9,2.7-3.3,5.6-3.3c3.4,0,5.7,2.5,5.7,5.5v1.5l-8,0.5c-2.7,0.2-4.9,1.1-6.8,3c-1.9,1.8-2.8,3.9-2.8,6.4c0,2.6,1,4.8,2.9,6.5
		c1.9,1.7,4.3,2.6,7.2,2.6c1.6,0,2.9-0.3,4.2-0.9c1.3-0.6,2.1-1.1,2.5-1.4c0.4-0.4,0.7-0.6,0.9-0.9v1.5c0,0.7,0.4,1.1,1.3,1.1h1.9
		c0.9,0,1.3-0.4,1.3-1.1V21.4C139.4,15.9,135.6,11.9,129,11.9z M134.7,32.3c0,1.3-0.7,2.6-2.1,3.8c-1.3,1.1-3.1,1.8-5.1,1.8
		c-3.2,0-5.7-2.2-5.7-5s2.3-4.9,5.3-5.1l7.6-0.5L134.7,32.3L134.7,32.3z"/>
	<path class="st0" d="M168,0.9h-2c-0.9,0-1.3,0.4-1.3,1.1l0.1,12.7L164,14c-0.9-0.9-3.6-2.1-6.6-2.1c-3.1,0-5.7,1.1-7.8,3.1
		s-3.2,4.6-3.2,7.5v8.8c0,2.9,1.1,5.5,3.2,7.6c2.1,2,4.8,3.1,7.8,3.1c3.3,0,6.1-1.4,6.8-2.1c0.4-0.4,0.6-0.6,0.8-0.9v1.3
		c0,0.7,0.4,1.1,1.3,1.1h1.7c0.9,0,1.3-0.4,1.3-1.1V1.9C169.3,1.2,168.8,0.9,168,0.9z M164.6,31.6c0,3.5-2.9,6.3-6.8,6.3
		s-6.7-2.7-6.7-6.3v-9.3c0-3.5,2.8-6.3,6.7-6.3c3.9,0,6.8,2.7,6.8,6.3V31.6z"/>
	<path class="st0" d="M187.8,11.9c-3.4,0-6.2,1.1-8.3,3.1c-2.1,2-3.2,4.6-3.2,7.5v8.8c0,3,1.1,5.6,3.2,7.7c2.1,2,4.9,3.1,8.3,3.1
		s6.1-1.1,8.2-3.1c2.1-2.1,3.3-4.6,3.3-7.6v-8.8c0-3-1.1-5.5-3.3-7.5C193.9,13,191.2,11.9,187.8,11.9z M194.5,31.6
		c0,3.4-2.6,6.3-6.7,6.3c-4.1,0-6.8-2.8-6.8-6.3v-9.3c0-3.5,2.7-6.3,6.8-6.3s6.7,2.8,6.7,6.3V31.6z"/>
</g>
</svg>
