<?xml version="1.0" encoding="utf-8"?>
<svg xmlns="http://www.w3.org/2000/svg" width="1200" height="630" viewBox="0 0 1200 630">
  <!-- Dark background -->
  <rect width="1200" height="630" fill="#050505"/>

  <!-- White logo centered (scaled to ~400px wide) -->
  <g transform="translate(400, 250) scale(2)">
    <style type="text/css">.st0{fill:#FFFFFF;}</style>
    <path class="st0" d="M12.53,11.9c-2.88,0-5.33,0.88-7.27,2.63c-1.94,1.69-2.88,3.32-2.88,4.83c0,0.63,0.38,1.07,1.07,1.07h2.45
      c0.38,0,0.75-0.38,1.07-1c0.69-1.88,2.7-3.26,5.64-3.26c3.45,0,5.71,2.51,5.71,5.52v1.5l-7.96,0.5c-2.7,0.19-4.95,1.13-6.77,2.95
      c-1.88,1.76-2.76,3.89-2.76,6.4c0,2.63,1,4.77,2.95,6.52c1.94,1.69,4.33,2.57,7.15,2.57c1.57,0,2.95-0.31,4.2-0.88
      c1.32-0.56,2.13-1.07,2.51-1.38c0.38-0.38,0.69-0.63,0.88-0.88v1.5c0,0.69,0.44,1.07,1.32,1.07h1.88c0.88,0,1.32-0.38,1.32-1.07
      V21.37C22.94,15.91,19.24,11.9,12.53,11.9z M18.24,32.34c0,1.32-0.69,2.57-2.07,3.76c-1.32,1.13-3.07,1.76-5.08,1.76
      c-3.2,0-5.71-2.19-5.71-4.95c0-2.76,2.26-4.89,5.27-5.08l7.59-0.5V32.34z"/>
    <path class="st0" d="M49.84,12.46H47.9c-0.88,0-1.32,0.38-1.32,1.07v9.53c0,0.31-0.06,0.56-0.19,0.88l-5.02,13.92h-1.19
      l-5.02-13.92c-0.13-0.31-0.19-0.56-0.19-0.88v-9.53c0-0.69-0.44-1.07-1.32-1.07h-1.94c-0.88,0-1.32,0.38-1.32,1.07v9.4
      c0,0.38,0.06,0.69,0.19,1l6.02,16.55c0.25,0.63,0.69,1,1.38,1h5.64c0.69,0,1.13-0.38,1.38-1l6.02-16.55
      c0.13-0.31,0.19-0.56,0.19-1v-9.4C51.16,12.84,50.66,12.46,49.84,12.46z"/>
    <path class="st0" d="M69.78,11.9c-3.45,0-6.21,1.07-8.34,3.13c-2.13,2.01-3.2,4.58-3.2,7.52v8.78c0,3.01,1.07,5.58,3.2,7.65
      c2.13,2.01,4.95,3.07,8.34,3.07s6.08-1.07,8.21-3.07c2.13-2.07,3.26-4.64,3.26-7.59v-8.84c0-2.95-1.13-5.45-3.26-7.52
      C75.86,12.96,73.1,11.9,69.78,11.9z M76.49,31.65c0,3.45-2.63,6.27-6.71,6.27c-4.14,0-6.83-2.82-6.83-6.33v-9.34
      c0-3.45,2.7-6.27,6.83-6.27c4.14,0,6.71,2.76,6.71,6.27V31.65z"/>
    <path class="st0" d="M109.53,31.84h-2.7c-0.63,0-1,0.38-1.07,1c-0.31,2.51-2.63,5.08-6.33,5.08c-4.14,0-6.83-2.76-6.83-6.33v-9.22
      c0-3.45,2.76-6.27,6.77-6.27c4.83,0,5.89,3.51,6.14,5.08c0.06,0.63,0.38,1,1.07,1h2.7c0.5,0,1.07-0.38,1.07-1.07
      c0-3.07-2.7-9.28-10.91-9.28c-3.45,0-6.14,1.07-8.28,3.13c-2.13,2.07-3.2,4.58-3.2,7.52v8.78c0,2.88,1.07,5.39,3.13,7.52
      c2.13,2.13,4.95,3.2,8.34,3.2c3.45,0,6.14-1.07,8.09-3.07c2.01-2.01,3.01-4.08,3.01-6.08C110.6,32.21,110.09,31.84,109.53,31.84z"/>
    <path class="st0" d="M128.97,11.9c-2.88,0-5.33,0.88-7.27,2.63c-1.94,1.69-2.88,3.32-2.88,4.83c0,0.63,0.38,1.07,1.07,1.07h2.45
      c0.38,0,0.75-0.38,1.07-1c0.69-1.88,2.7-3.26,5.64-3.26c3.45,0,5.71,2.51,5.71,5.52v1.5l-7.96,0.5c-2.7,0.19-4.95,1.13-6.77,2.95
      c-1.88,1.76-2.76,3.89-2.76,6.4c0,2.63,1,4.77,2.95,6.52c1.94,1.69,4.33,2.57,7.15,2.57c1.57,0,2.95-0.31,4.2-0.88
      c1.32-0.56,2.13-1.07,2.51-1.38c0.38-0.38,0.69-0.63,0.88-0.88v1.5c0,0.69,0.44,1.07,1.32,1.07h1.88c0.88,0,1.32-0.38,1.32-1.07
      V21.37C139.38,15.91,135.61,11.9,128.97,11.9z M134.67,32.34c0,1.32-0.69,2.57-2.07,3.76c-1.32,1.13-3.07,1.76-5.08,1.76
      c-3.2,0-5.71-2.19-5.71-4.95c0-2.76,2.26-4.89,5.27-5.08l7.59-0.5V32.34z"/>
    <path class="st0" d="M167.97,0.86h-2.01c-0.88,0-1.32,0.38-1.32,1.07l0.06,12.67l-0.69-0.63c-0.94-0.94-3.57-2.07-6.58-2.07
      c-3.07,0-5.71,1.07-7.84,3.13s-3.2,4.58-3.2,7.52v8.84c0,2.95,1.07,5.52,3.2,7.59c2.13,2.01,4.77,3.07,7.84,3.07
      c3.26,0,6.14-1.44,6.83-2.07c0.38-0.38,0.56-0.63,0.75-0.88v1.32c0,0.69,0.44,1.07,1.32,1.07h1.69c0.88,0,1.32-0.38,1.32-1.07
      V1.93C169.28,1.24,168.84,0.86,167.97,0.86z M164.64,31.59c0,3.51-2.88,6.33-6.83,6.33s-6.71-2.7-6.71-6.27v-9.28
      c0-3.51,2.76-6.27,6.71-6.27c3.95,0,6.83,2.7,6.83,6.27V31.59z"/>
    <path class="st0" d="M187.78,11.9c-3.45,0-6.21,1.07-8.34,3.13c-2.13,2.01-3.2,4.58-3.2,7.52v8.78c0,3.01,1.07,5.58,3.2,7.65
      c2.13,2.01,4.95,3.07,8.34,3.07c3.39,0,6.08-1.07,8.21-3.07c2.13-2.07,3.26-4.64,3.26-7.59v-8.84c0-2.95-1.13-5.45-3.26-7.52
      C193.86,12.96,191.16,11.9,187.78,11.9z M194.49,31.65c0,3.45-2.63,6.27-6.71,6.27c-4.14,0-6.83-2.82-6.83-6.33v-9.34
      c0-3.45,2.7-6.27,6.83-6.27s6.71,2.76,6.71,6.27V31.65z"/>
  </g>

  <!-- Tagline -->
  <text x="600" y="380" font-family="Arial, sans-serif" font-size="28" fill="#888888" text-anchor="middle">
    Ship in weeks, not quarters.
  </text>
</svg>
