<svg width="105" height="32" viewBox="0 0 105 32" fill="none" xmlns="http://www.w3.org/2000/svg">
<g clip-path="url(#clip0_41_2336)">
<path d="M18.987 16.9624C19.3294 17.08 19.7282 17.2552 20.1827 17.4872C20.9812 17.9552 21.6629 18.596 22.2373 19.4112C22.9221 20.5776 23.2614 21.976 23.2614 23.6064C23.2614 29.2032 19.9523 32 13.3405 32H0.51403C0.171604 32 0 31.8248 0 31.4744V4.5456C0 4.1952 0.171604 4.02 0.51403 4.02H14.0293C16.4247 4.02 18.3601 4.6936 19.8434 6.0312C21.3236 7.3728 22.068 9.1512 22.068 11.3656C22.068 12.6496 21.7812 13.7848 21.2139 14.7752C20.6411 15.7688 19.8998 16.4968 18.987 16.9624ZM13.172 27.9768C15.1106 27.9768 16.5336 27.6568 17.4472 27.0168C18.3578 26.3768 18.8154 25.268 18.8154 23.6944C18.8154 22.1208 18.3578 21.0152 17.4472 20.372C16.5336 19.732 15.1067 19.412 13.172 19.412H5.13168C4.67407 19.412 4.44683 19.5864 4.44683 19.9368V27.4576C4.44683 27.808 4.67407 27.9824 5.13168 27.9824H13.172V27.9768ZM5.13168 8.0432C4.78925 8.0432 4.61843 8.2176 4.61843 8.5688V14.8624C4.61843 15.2136 4.78925 15.3888 5.13168 15.3888H13.0004C15.9639 15.3888 17.4472 14.1656 17.4472 11.7152C17.4472 9.2656 15.9639 8.0432 13.0004 8.0432H5.13168ZM46.7015 16.9624C47.0643 17.0904 47.4091 17.2672 47.7264 17.4872C48.6362 17.9552 49.3218 18.596 49.7794 19.4112C50.5771 20.5776 50.9767 21.976 50.9767 23.6064C50.9767 29.2032 47.6676 32 41.0542 32H28.2262C27.883 32 27.7114 31.8248 27.7114 31.4744V4.5456C27.7114 4.1952 27.883 4.02 28.2254 4.02H41.7398C44.0209 4.02 45.9297 4.6936 47.4725 6.0312C49.0115 7.3728 49.7825 9.1512 49.7825 11.3656C49.7825 12.6496 49.4957 13.7848 48.9284 14.7752C48.3525 15.7688 47.612 16.4968 46.7015 16.9624ZM32.6722 8.0432C32.329 8.0432 32.1574 8.2176 32.1574 8.5688V14.8624C32.1574 15.2136 32.329 15.3888 32.6722 15.3888H40.711C43.6745 15.3888 45.1578 14.1656 45.1578 11.7152C45.1578 9.2656 43.6745 8.0432 40.711 8.0432H32.6722ZM40.8826 27.9768C42.8212 27.9768 44.245 27.6568 45.1578 27.0168C46.0684 26.3768 46.526 25.268 46.526 23.6944C46.526 22.1208 46.0684 21.0152 45.1578 20.372C44.245 19.732 42.8181 19.412 40.8826 19.412H32.6722C32.329 19.412 32.1574 19.5864 32.1574 19.9368V27.4576C32.1574 27.808 32.329 27.9824 32.6722 27.9824H40.8826V27.9768ZM75.437 4.3704C75.5491 4.1384 75.6642 4.02 75.7802 4.02H80.2263C80.3383 4.02 80.4543 4.08 80.5695 4.1952C80.6815 4.3128 80.6815 4.4304 80.5695 4.5456L66.3725 31.8256C66.2597 31.9416 66.1045 32.0048 65.9439 32C65.7833 32.0056 65.6281 31.9416 65.5153 31.8248L51.3191 4.5456C51.2039 4.4304 51.1742 4.3128 51.2337 4.1952C51.2894 4.0808 51.4312 4.02 51.6623 4.02H55.9368C56.1656 4.02 56.3364 4.1384 56.4516 4.3704L65.5161 21.8576C65.5161 21.976 65.6281 22.0336 65.8585 22.0336C66.0857 22.0336 66.2573 21.976 66.3733 21.8584L75.437 4.3704ZM80.5695 27.6304C80.4543 27.8656 80.2827 27.98 80.0547 27.98H75.6086C75.4934 27.98 75.4072 27.9224 75.3516 27.8048C75.2952 27.6968 75.2654 27.5768 75.2654 27.4544L89.4663 0.1744C89.5783 0.0608 89.7499 0 89.9803 0C90.2083 0 90.3799 0.06 90.4943 0.1752L104.689 27.4544C104.689 27.572 104.659 27.6896 104.603 27.8048C104.544 27.9224 104.458 27.98 104.346 27.98H99.8997C99.6685 27.98 99.4977 27.8656 99.3848 27.6296L90.4888 10.1424C90.3737 9.9096 90.202 9.792 89.9748 9.792C89.7444 9.792 89.5728 9.9096 89.4608 10.1416L80.5703 27.6296L80.5695 27.6304Z" fill="white"/>
</g>
<defs>
<clipPath id="clip0_41_2336">
<rect width="105" height="32" fill="white"/>
</clipPath>
</defs>
</svg>
