<svg width="202" height="24" viewBox="0 0 202 24" fill="none" xmlns="http://www.w3.org/2000/svg">
<g clip-path="url(#clip0_47_1521)">
<path d="M62.519 13.3224H62.7547C64.0677 13.3224 65.1114 12.3101 65.1114 11.0367V9.04484C65.1114 7.86933 64.9767 7.31423 64.5054 6.69382C63.832 5.8775 62.6537 5.51831 61.509 5.51831H51.3417H47.2344V8.45709V11.853V13.3224V14.7918V18.3836V21.6163H51.3417H60.2634C61.7447 21.6163 63.4954 21.4203 64.4044 20.4734C65.246 19.5918 65.2797 18.9061 65.2797 16.751V16.0326C65.3134 14.5632 64.0677 13.3224 62.519 13.3224ZM51.3754 8.45709H59.994C60.4317 8.45709 61.3407 8.62035 61.3407 9.30607V11.0693C61.3407 11.6244 60.499 11.853 60.1624 11.853H51.3754V8.45709ZM61.408 17.5346C61.408 18.0244 61.004 18.4163 60.499 18.4163H51.3754V14.8244H60.4317C60.9704 14.8244 61.408 15.2489 61.408 15.7714V17.5346Z" fill="white"/>
<path d="M85.446 21.6489H90.1593L80.6316 5.5509H76.76L67.4006 21.6489H71.609L73.5616 18.155H83.527L85.446 21.6489ZM75.3123 15.0203L78.578 9.20804L81.7763 15.0203H75.3123Z" fill="white"/>
<path d="M95.4786 5.5509H94.8726H93.93H92.6506V21.6489H96.4213V13.5509L96.3203 11.0693L109.215 21.6489H109.888H111.538H112.11V5.5509H108.339V13.6489L108.44 16.1305L95.4786 5.5509Z" fill="white"/>
<path d="M133.354 21.6489H120.527C119.382 21.6489 118.136 21.3876 117.463 20.604C116.891 19.9835 116.79 18.906 116.79 18.0244V9.17539C116.79 8.16314 116.924 7.08559 117.598 6.43253C118.271 5.77947 119.483 5.5509 120.527 5.5509H133.354C134.498 5.5509 135.744 5.77947 136.417 6.56314C136.956 7.18355 137.091 8.29375 137.091 9.17539V18.0244C137.091 18.9387 136.99 19.9835 136.417 20.604C135.744 21.3876 134.498 21.6489 133.354 21.6489ZM120.897 8.78355V18.4162H132.983V8.78355H120.897Z" fill="white"/>
<path d="M156.011 21.6489H161.836L154.395 15.7061H156.685C158.435 15.7061 159.883 14.3346 159.883 12.604V8.62035C159.883 6.92239 158.469 5.51831 156.685 5.51831H146.012H141.905V8.5877V12.5714V15.6408V21.6489H146.012V15.7061H149.278L156.011 21.6489ZM146.012 8.62035H155.035C155.473 8.62035 155.809 8.94688 155.809 9.37137V11.8857C155.809 12.3101 155.473 12.6367 155.035 12.6367H146.012V8.62035Z" fill="white"/>
<path d="M162.913 5.5509V8.7509H170.353V21.6489H174.461V8.7509H181.867V5.5509H174.461H170.353H162.913Z" fill="white"/>
<path d="M197.085 11.6897H189.308V8.65294H201.832V5.5509H189.308H185.2V8.65294V11.6897V14.7917V18.3836V21.6489H189.308H202V18.3836H189.308V14.7917H197.085V11.6897Z" fill="white"/>
<path d="M21.5467 0C11.9517 0 4.17468 2.44898 4.17468 5.48571C4.17468 8.03265 9.59502 10.1551 16.968 10.7755L19.998 1.73061L20.5367 10.9388C20.8734 10.9388 21.21 10.9388 21.5804 10.9388C31.1754 10.9388 38.9524 8.48979 38.9524 5.45306C38.9187 2.48163 31.1417 0 21.5467 0Z" fill="white"/>
<path d="M16.867 11.1019C7.50767 11.1999 0 14.0734 0 17.6325C0 20.6366 5.31933 23.1509 12.5913 23.9346L16.867 11.1019Z" fill="white"/>
<path d="M20.5031 11.2L21.2437 24C28.9534 23.3469 34.6767 20.7346 34.6767 17.6326C34.7104 14.4326 28.5831 11.7551 20.5031 11.2Z" fill="white"/>
</g>
<defs>
<clipPath id="clip0_47_1521">
<rect width="202" height="24" fill="white"/>
</clipPath>
</defs>
</svg>
