<svg width="91" height="64" viewBox="0 0 91 64" fill="none" xmlns="http://www.w3.org/2000/svg">
<g clip-path="url(#clip0_47_1534)">
<path d="M39.7274 58.8465C40.0676 58.8005 40.414 58.8385 40.7359 58.9572C41.0577 59.0759 41.345 59.2716 41.5722 59.5269C41.7994 59.7823 41.9595 60.0893 42.0382 60.4208C42.1169 60.7523 42.1119 61.0979 42.0235 61.427C41.9438 62.1536 41.5801 62.8203 41.0103 63.2839C40.4406 63.7475 39.7102 63.9711 38.9761 63.9067H37.154L37.9635 58.8465H39.7274ZM39.647 59.5979H38.6777L38.1095 63.1542H39.0428C39.5708 63.1905 40.0919 63.0187 40.4931 62.6763C40.8942 62.3339 41.143 61.8484 41.1855 61.3252C41.3675 60.2128 40.85 59.5979 39.647 59.5979Z" fill="white"/>
<path d="M48.0083 58.8465L47.8845 59.5978H45.2021L44.9831 60.9789H47.4464L47.33 61.7302H44.8667L44.6413 63.1542H47.3607L47.2443 63.9056H43.6869L44.4964 58.8455L48.0083 58.8465Z" fill="white"/>
<path d="M51.6609 58.7521C52.2058 58.7423 52.7421 58.888 53.2058 59.1718L53.0894 59.9305C52.6792 59.6364 52.1817 59.4865 51.6758 59.5045C51.0409 59.5045 50.5901 59.6776 50.5245 60.1257C50.3637 61.1888 53.301 60.8697 53.0101 62.6443C52.8418 63.6852 51.8948 63.9959 50.9478 63.9959C50.3151 64.0073 49.6909 63.85 49.1405 63.5404L49.2643 62.767C49.7592 63.0904 50.3415 63.2569 50.934 63.2445C51.5974 63.2445 52.0979 63.0924 52.1657 62.6149C52.3551 61.4511 49.4146 61.7974 49.6876 60.0554C49.8031 59.6389 50.0662 59.2777 50.4288 59.0383C50.7914 58.7988 51.2289 58.6972 51.6609 58.7521Z" fill="white"/>
<path d="M57.3547 58.8465C57.6949 58.8005 58.0414 58.8385 58.3632 58.9572C58.6851 59.0759 58.9724 59.2716 59.1996 59.5269C59.4268 59.7823 59.5868 60.0893 59.6656 60.4208C59.7443 60.7523 59.7393 61.0979 59.6509 61.427C59.5712 62.1534 59.2076 62.8199 58.6381 63.2835C58.0686 63.7471 57.3385 63.9708 56.6045 63.9067H54.7824L55.5919 58.8465H57.3547ZM57.2743 59.5979H56.3051L55.7368 63.1542H56.6722C57.2003 63.1905 57.7214 63.0187 58.1225 62.6763C58.5237 62.3339 58.7725 61.8484 58.8149 61.3252C58.9948 60.2128 58.4774 59.5979 57.2743 59.5979Z" fill="white"/>
<path d="M65.6356 58.8465L65.5118 59.5978H62.8295L62.6104 60.9789H65.0738L64.9574 61.7302H62.4941L62.2676 63.1542H64.9859L64.8696 63.9056H61.3121L62.1216 58.8455L65.6356 58.8465Z" fill="white"/>
<path d="M72.2119 58.9902L71.5411 63.1616H72.4235L72.2997 63.9066H69.6025L69.7263 63.1616H70.7178L71.2469 59.836L70.1972 60.2044L70.321 59.4457L71.5971 58.9902H72.2119Z" fill="white"/>
<path d="M76.4444 58.8969C77.8729 58.8969 78.4855 59.8801 78.2305 61.4563C78.2063 62.1411 77.9144 62.7896 77.4165 63.2645C76.9186 63.7395 76.2538 64.0037 75.563 64.0011C75.127 64.0043 74.6968 63.9028 74.3091 63.7052L74.4149 62.9821C74.7534 63.1766 75.1389 63.2764 75.5302 63.2707C75.969 63.2789 76.3958 63.1277 76.73 62.8455C77.0643 62.5633 77.283 62.1696 77.3449 61.7386C76.903 61.9807 76.4064 62.1075 75.9016 62.1069C75.6875 62.128 75.4715 62.0999 75.2702 62.0246C75.0689 61.9494 74.8879 61.8291 74.7412 61.6731C74.5945 61.5172 74.486 61.3297 74.4243 61.1254C74.3626 60.9211 74.3492 60.7054 74.3853 60.4951C74.4673 60.0227 74.7235 59.5975 75.104 59.3021C75.4846 59.0068 75.9624 58.8623 76.4444 58.8969ZM75.2202 60.5234C75.1143 61.1887 75.5989 61.3913 76.1608 61.3913C76.6325 61.3827 77.0902 61.2315 77.4729 60.9579C77.5311 59.9819 77.1152 59.6136 76.4306 59.6136C76.1487 59.58 75.8646 59.6559 75.6379 59.8256C75.4112 59.9952 75.2596 60.2453 75.2149 60.5234H75.2202Z" fill="white"/>
<path d="M82.644 58.8969C84.1306 58.8969 84.721 60.0386 84.4882 61.4993C84.4623 62.1655 84.1794 62.7964 83.6979 63.2618C83.2165 63.7271 82.5733 63.9913 81.9011 64C80.4197 64 79.8315 62.8583 80.0643 61.3975C80.0886 60.7321 80.37 60.1013 80.8502 59.6359C81.3303 59.1704 81.9726 58.9058 82.644 58.8969ZM82.6006 59.6482C81.6313 59.6482 81.0695 60.2841 80.8801 61.4479C80.7055 62.5687 81.0187 63.2476 81.9445 63.2476C82.9212 63.2476 83.483 62.6117 83.6724 61.4479C83.847 60.3282 83.5328 59.6482 82.6006 59.6482Z" fill="white"/>
<path d="M88.5567 60.7837C88.7695 60.767 88.9832 60.7987 89.1818 60.8763C89.3803 60.9539 89.5584 61.0754 89.7025 61.2315C89.8466 61.3876 89.9528 61.5743 90.0131 61.7773C90.0735 61.9803 90.0864 62.1942 90.0508 62.4029C89.9714 62.8744 89.7174 63.2995 89.3384 63.5949C88.9595 63.8904 88.483 64.0349 88.0023 64.0001C86.5664 64.0001 85.9537 63.0168 86.2088 61.4406C86.2281 60.9934 86.3611 60.5582 86.5954 60.1756C86.8296 59.7929 87.1575 59.4751 87.5486 59.2516C87.9397 59.0281 88.3815 58.9062 88.8328 58.8973C89.2841 58.8883 89.7303 58.9925 90.1302 59.2002L90.0138 59.9159C89.6777 59.7219 89.2948 59.6222 88.9059 59.6273C88.4693 59.6247 88.0464 59.7781 87.7145 60.0595C87.3826 60.3408 87.164 60.7313 87.0986 61.1594C87.5436 60.9109 88.0461 60.7814 88.5567 60.7837ZM89.2202 62.3578C89.326 61.7145 88.8488 61.5047 88.2869 61.5047C87.8129 61.5129 87.3527 61.6641 86.9674 61.938C86.9018 62.914 87.3102 63.2896 87.9874 63.2896C88.2744 63.3242 88.5637 63.2464 88.7937 63.0728C89.0237 62.8992 89.1763 62.6434 89.2191 62.3599L89.2202 62.3578Z" fill="white"/>
<path d="M7.49787 31.289C8.3247 31.2693 9.14351 31.4535 9.88077 31.8252L9.69666 33.0467C9.17452 32.732 8.58485 32.5439 7.97561 32.4979C7.36637 32.4518 6.75475 32.549 6.19052 32.7815C5.62629 33.014 5.12537 33.3754 4.72851 33.8361C4.33164 34.2968 4.05004 34.844 3.90659 35.433C3.80788 35.8082 3.80332 36.2017 3.8933 36.5791C3.98329 36.9564 4.16508 37.3062 4.4228 37.5978C4.68052 37.8894 5.00631 38.114 5.37174 38.2519C5.73716 38.3899 6.13109 38.437 6.5191 38.3891C6.96456 38.3989 7.40727 38.3175 7.81954 38.1499L8.30311 35.136H9.60354L8.98242 39.0513C8.15406 39.3923 7.26678 39.5705 6.3699 39.576C4.26317 39.576 2.0993 38.2863 2.58287 35.2735C2.77545 34.1311 3.38016 33.0971 4.28439 32.3641C5.18861 31.631 6.33069 31.249 7.49787 31.289Z" fill="white"/>
<path d="M10.1644 39.4276L11.4415 31.4365H14.6413C16.1142 31.4365 17.6686 32.0662 17.3575 34.0159C17.2733 34.5936 17.0023 35.1286 16.5852 35.5404C16.168 35.9522 15.6274 36.2186 15.0445 36.2994L17.0813 39.4276H15.6084L13.6858 36.4368H11.959L11.4754 39.4276H10.1644ZM12.1558 35.2836H14.1006C14.5394 35.3422 14.9843 35.2334 15.3453 34.9792C15.7064 34.725 15.9566 34.3443 16.0454 33.9141C16.2063 32.8868 15.4243 32.6244 14.564 32.6244H12.5843L12.1558 35.2836Z" fill="white"/>
<path d="M25.4427 31.4365L24.6374 36.505C24.5412 37.4149 24.0844 38.2495 23.3677 38.8253C22.6509 39.4011 21.7329 39.671 20.8155 39.5756C19.0167 39.5756 17.385 38.7424 17.7543 36.4274L18.5596 31.4386H19.8716L19.078 36.4379C18.8368 37.8986 19.6187 38.3667 20.8388 38.3667C21.1374 38.4036 21.4406 38.3805 21.7301 38.2987C22.0196 38.2169 22.2895 38.078 22.5237 37.8905C22.7578 37.7029 22.9515 37.4704 23.093 37.207C23.2346 36.9435 23.3212 36.6545 23.3476 36.3571L24.1306 31.4376L25.4427 31.4365Z" fill="white"/>
<path d="M29.7736 31.4365C31.4666 31.4365 33.0654 32.0756 32.7363 34.1418C32.4252 36.1283 30.8486 36.6877 28.9376 36.6877H27.3145L26.8764 39.4276H25.5643L26.8426 31.4365H29.7736ZM29.7048 32.6234H27.9663L27.506 35.4998H29.1291C30.3026 35.4998 31.2359 35.1849 31.42 34.0159C31.6041 32.8469 30.6328 32.6276 29.7048 32.6276V32.6234Z" fill="white"/>
<path d="M36.9688 39.5755C36.4278 39.6066 35.8868 39.5129 35.3884 39.3017C34.89 39.0904 34.4478 38.7675 34.0966 38.3582C33.7453 37.9489 33.4944 37.4644 33.3638 36.9427C33.2332 36.4211 33.2263 35.8765 33.3436 35.3518C33.5122 34.2067 34.0965 33.1621 34.9866 32.414C35.8768 31.6658 37.0116 31.2656 38.1782 31.2885C38.7189 31.2603 39.2589 31.3559 39.7564 31.5678C40.2539 31.7798 40.6955 32.1024 41.0471 32.5108C41.3987 32.9191 41.6509 33.4022 41.784 33.9227C41.9172 34.4432 41.9278 34.9871 41.815 35.5123C41.6561 36.6637 41.073 37.7159 40.1781 38.4662C39.2833 39.2165 38.14 39.6117 36.9688 39.5755ZM37.0492 38.354C37.8889 38.3739 38.706 38.0835 39.3419 37.5394C39.9778 36.9952 40.3871 36.2361 40.4903 35.4095C40.5854 35.0558 40.5944 34.6848 40.5166 34.327C40.4387 33.9693 40.2761 33.635 40.0423 33.3517C39.8085 33.0685 39.5102 32.8445 39.1719 32.6982C38.8336 32.5518 38.4651 32.4873 38.0968 32.51C37.2582 32.4907 36.4424 32.7816 35.8082 33.3261C35.1741 33.8706 34.767 34.6298 34.6663 35.4556C34.5717 35.8083 34.5627 36.1782 34.6402 36.535C34.7176 36.8917 34.8792 37.2252 35.1118 37.5081C35.3443 37.7909 35.6411 38.015 35.9779 38.1621C36.3147 38.3091 36.6818 38.3749 37.0492 38.354Z" fill="white"/>
<path d="M6.64296 42.4802C8.14895 42.4511 9.63472 42.8276 10.9421 43.5695L10.4766 46.5781C9.39653 45.8016 8.08864 45.3996 6.75512 45.4342C5.41553 45.4531 4.81981 45.8036 4.78277 46.3388C4.67167 48.0367 11.3887 47.703 10.5517 52.208C10.012 55.1463 7.66723 55.9543 4.89494 55.9543C3.18065 55.9914 1.48864 55.564 0.00109863 54.7182L0.503699 51.5994C1.73612 52.5347 3.25125 53.0291 4.80287 53.0024C6.14246 53.0024 6.96145 52.6876 7.03552 52.1167C7.33391 49.9938 0.559777 50.6214 1.30364 46.0817C1.71208 43.6062 4.13096 42.4802 6.64296 42.4802Z" fill="white"/>
<path d="M20.1161 55.6762L19.6928 53.6456H14.2964L13.2382 55.6762H9.62793L16.8115 42.7572H20.533L23.5846 55.6762H20.1161ZM15.7619 50.8784H19.1119L18.4051 47.2612C18.3126 46.7929 18.2627 46.3174 18.2559 45.8403C18.1075 46.3184 17.9144 46.7818 17.6792 47.2244L15.7619 50.8784Z" fill="white"/>
<path d="M28.4774 42.7572L26.8955 52.6309H32.8507L32.3671 55.6741H22.9698L25.0353 42.7551L28.4774 42.7572Z" fill="white"/>
<path d="M38.8238 42.7572L36.7583 55.6762H33.3162L35.3817 42.7572H38.8238Z" fill="white"/>
<path d="M38.0915 55.6762L40.157 42.7572H43.0224L47.3766 50.1029C47.4088 49.4041 47.4834 48.7078 47.5998 48.0178L48.4368 42.7582H51.88L49.8134 55.6762H46.948L42.6097 48.3494C42.5938 48.9927 42.5316 49.6341 42.4235 50.2687L41.5304 55.6762H38.0915Z" fill="white"/>
<path d="M59.6837 55.6762L59.2605 53.6456H53.864L52.8059 55.6762H49.1956L56.3792 42.7572H60.1006L63.1522 55.6762H59.6837ZM55.3295 50.8784H58.6795L57.9727 47.2612C57.8803 46.7929 57.8303 46.3174 57.8235 45.8403C57.6751 46.3185 57.4821 46.7819 57.2468 47.2244L55.3295 50.8784Z" fill="white"/>
<path d="M69.8015 42.4802C71.3075 42.4511 72.7932 42.8276 74.1006 43.5695L73.6351 46.5781C72.555 45.8016 71.2472 45.3996 69.9137 45.4342C68.5741 45.4531 67.9783 45.8036 67.9413 46.3388C67.8291 48.0367 74.5472 47.703 73.7102 52.208C73.1706 55.1463 70.8257 55.9543 68.0534 55.9543C66.3392 55.9914 64.6471 55.564 63.1596 54.7182L63.6622 51.5994C64.8944 52.5344 66.4091 53.0289 67.9603 53.0024C69.2999 53.0024 70.1189 52.6876 70.193 52.1167C70.4903 49.9938 63.7173 50.6214 64.4611 46.0817C64.8717 43.6062 67.2895 42.4802 69.8015 42.4802Z" fill="white"/>
<path d="M88.6711 29.7365C88.6703 33.1734 87.9077 36.5682 86.4372 39.6804C84.9667 42.7926 82.8243 45.5461 80.1616 47.746C79.6823 48.1448 79.6929 48.7377 80.1616 48.8899C80.6579 49.0504 81.1679 48.6139 81.5256 48.3033C84.6363 45.5513 87.0855 42.1429 88.693 38.3285C90.3005 34.5142 91.0254 30.391 90.8144 26.2622C90.6035 22.1334 89.4619 18.104 87.4738 14.4704C85.4857 10.8367 82.7016 7.6913 79.3262 5.26538C75.9509 2.83946 72.0701 1.19475 67.9693 0.452237C63.8686 -0.290279 59.6522 -0.111725 55.6302 0.974769C51.6082 2.06126 47.883 4.02806 44.7284 6.73051C41.5738 9.43296 39.0702 12.8023 37.4016 16.5908C37.0614 17.4606 36.9374 18.3988 37.04 19.3262C37.1427 20.2536 37.469 21.1428 37.9914 21.9187C38.5137 22.6945 39.2168 23.3343 40.0411 23.7838C40.8654 24.2333 41.7868 24.4793 42.7272 24.5011C43.4446 22.6867 47.0909 5.84297 65.1331 6.31939C78.1258 6.66254 88.6679 16.8028 88.6679 29.7375" fill="white"/>
<path d="M49.9373 21.2071C49.9373 20.5789 50.1251 19.9649 50.477 19.4427C50.8289 18.9204 51.3291 18.5134 51.9143 18.2731C52.4995 18.0329 53.1434 17.9701 53.7646 18.0928C54.3857 18.2155 54.9563 18.5181 55.404 18.9624C55.8517 19.4067 56.1564 19.9727 56.2798 20.5889C56.4031 21.205 56.3394 21.8435 56.0967 22.4237C55.854 23.0039 55.4433 23.4997 54.9165 23.8484C54.3896 24.197 53.7704 24.3829 53.137 24.3825C52.7167 24.3824 52.3005 24.3001 51.9122 24.1405C51.5239 23.9808 51.1711 23.7469 50.874 23.452C50.5769 23.1571 50.3412 22.8071 50.1805 22.4219C50.0197 22.0368 49.9371 21.6239 49.9373 21.2071Z" fill="white"/>
<path d="M45.782 35.1544C50.8566 38.9161 57.0189 40.9548 63.3543 40.968C69.8901 41.0447 76.2591 38.922 81.4218 34.9467C81.4218 34.9467 82.5773 34.168 81.662 33.423C81.0039 32.8867 80.0452 33.4786 79.5648 33.8091C74.8378 37.0985 69.252 38.9613 63.4813 39.1725C57.1977 39.3924 51.008 37.6123 45.818 34.0925C45.818 34.0925 45.2995 33.6465 45.1461 34.232C45.0487 34.6014 45.7809 35.1523 45.7809 35.1523" fill="white"/>
<path d="M75.1852 31.8478C71.7244 33.8069 67.9125 35.0797 63.9616 35.5952C57.6741 36.3358 51.3119 35.0757 45.7936 31.9968C45.7936 31.9968 45.237 31.5981 45.1365 32.1952C45.073 32.5719 45.855 33.0567 45.855 33.0567C51.2804 36.3866 57.6382 37.9065 63.9976 37.3938C68.562 37.0173 72.9751 35.5909 76.8867 33.2277C77.3793 32.982 77.8464 32.6889 78.2813 32.3526C78.3959 32.2576 78.4873 32.1379 78.5485 32.0027C78.6096 31.8675 78.639 31.7202 78.6343 31.5721C78.6296 31.424 78.591 31.2789 78.5214 31.1478C78.4518 31.0166 78.3531 30.9029 78.2326 30.8152C77.6411 30.3545 77.1395 30.6935 76.7427 30.9034C76.5893 30.9842 76.1238 31.3315 75.1863 31.8478" fill="white"/>
<path d="M71.7992 29.218C69.3777 30.4713 66.7965 31.3944 64.1257 31.9622C57.9491 33.2475 51.5202 32.5469 45.7724 29.962C45.7724 29.962 45.1841 29.6116 45.1376 30.2139C45.1069 30.5948 45.9269 31.0125 45.9269 31.0125C50.233 33.1661 55.0027 34.2487 59.8247 34.1668C64.6467 34.0849 69.3762 32.841 73.6054 30.5424C73.6054 30.5424 74.3905 30.1331 74.8572 29.8403C75.3661 29.5255 75.6338 28.8843 74.8572 28.2862C74.271 27.8381 73.5345 28.2935 73.197 28.4625C73.0615 28.5307 72.3219 28.9536 71.8055 29.218" fill="white"/>
<path d="M68.2523 26.6376C64.7782 28.3274 61.0024 29.3217 57.1407 29.5637C53.2789 29.8057 49.4069 29.2906 45.746 28.048C45.746 28.048 45.128 27.751 45.1344 28.3565C45.1344 28.7385 45.9936 29.0806 45.9936 29.0806C51.812 31.384 58.2292 31.7425 64.2717 30.1017C66.2637 29.5779 68.1953 28.8499 70.0353 27.9294C70.0353 27.9294 70.6511 27.6052 71.2162 27.2767C71.3491 27.209 71.4621 27.1084 71.5443 26.9847C71.6264 26.8609 71.6749 26.7181 71.685 26.5703C71.6951 26.4224 71.6665 26.2745 71.602 26.1409C71.5374 26.0073 71.4392 25.8924 71.3167 25.8076C71.0876 25.6829 70.8305 25.6176 70.5691 25.6176C70.3078 25.6176 70.0507 25.6829 69.8215 25.8076C69.5761 25.9534 68.7867 26.3679 68.2534 26.6292" fill="white"/>
<path d="M63.4252 24.7057C57.8307 27.0672 51.6051 27.5247 45.7206 26.0069C45.7206 26.0069 45.0805 25.7624 45.1365 26.3648C45.1725 26.7457 46.0539 27.0143 46.0539 27.0143C51.9098 28.7996 58.1991 28.5954 63.9247 26.434C64.8276 26.1129 65.7051 25.754 66.5573 25.3573C66.5573 25.3573 67.4165 24.9502 67.6048 24.8515C67.743 24.7966 67.863 24.7045 67.9515 24.5858C68.0399 24.467 68.0933 24.3261 68.1056 24.179C68.1179 24.0318 68.0886 23.8842 68.0211 23.7526C67.9536 23.621 67.8505 23.5106 67.7233 23.4338C67.0779 22.9396 66.0959 23.5304 65.7975 23.672C65.1224 23.9868 64.0167 24.4706 63.4252 24.7057Z" fill="white"/>
</g>
<defs>
<clipPath id="clip0_47_1534">
<rect width="91" height="64" fill="white"/>
</clipPath>
</defs>
</svg>
