<svg width="120" height="33" viewBox="0 0 120 33" fill="none" xmlns="http://www.w3.org/2000/svg">
<path d="M19.3736 23.7318C19.3736 23.2964 19.0434 23.0787 18.7132 23.0787C18.0527 23.0787 17.1721 23.1875 16.5116 23.1875C12.769 23.1875 9.68681 20.1394 9.68681 16.4381V1.52406V0.217723C9.68681 0.108862 9.57674 0 9.46666 0H0.110077L0 0.108862V16.3292C0 25.3647 7.37519 32.6585 16.5116 32.6585C17.3922 32.6585 18.2729 32.5496 19.1535 32.4407C19.2635 32.4407 19.3736 32.3319 19.3736 32.223V23.7318Z" fill="white"/>
<path d="M16.5116 0C15.631 0 14.6403 0.108862 13.7596 0.217723C13.6496 0.217723 13.5395 0.326585 13.5395 0.435446V8.92665C13.5395 9.3621 13.8697 9.68868 14.2 9.57982C14.5302 9.57982 16.4015 9.47096 16.4015 9.47096C20.1441 9.47096 23.2263 12.5191 23.2263 16.2204V30.9167C23.2263 31.0255 23.3364 31.0255 23.3364 31.0255C29.0604 28.5217 33.0232 22.8609 33.0232 16.3292C33.0232 7.29373 25.648 0 16.5116 0Z" fill="white"/>
<path d="M69.6527 8.05576V3.70129L64.369 4.13674V8.16462H69.6527V8.05576ZM79.3395 6.64056L74.2759 7.076V23.7318C74.2759 26.9977 75.817 28.9572 79.6697 28.9572C81.3209 28.9572 82.5317 28.6306 83.7426 28.1951V24.1673C82.6418 24.6027 81.7612 24.7116 80.7705 24.7116C79.8899 24.7116 79.4496 24.2761 79.4496 23.4052V15.1318H83.7426V10.995H79.3395V6.64056ZM64.369 28.6306H69.6527V10.995H64.369V28.6306ZM54.3519 24.8204C53.6915 25.0382 52.4806 25.0382 51.4899 25.0382C49.8388 25.0382 48.4077 25.0382 47.5271 24.9293V19.8128H51.3798C54.1318 19.8128 55.3426 20.5748 55.3426 22.4255C55.2325 23.4052 54.9023 24.1673 54.3519 24.8204ZM47.4171 10.8862C48.2977 10.8862 49.3984 10.7773 50.6093 10.7773C53.4713 10.7773 54.6822 11.6482 54.6822 13.39C54.6822 14.3697 54.2419 15.1318 53.3612 15.7849C52.5907 15.8938 51.7101 16.0027 50.7194 16.0027C49.5085 16.0027 48.2977 16.0027 47.4171 15.8938V10.8862ZM57.1039 17.309C58.755 16.3292 60.186 14.8052 60.186 12.5191C60.186 8.70893 57.2139 6.64056 50.9395 6.64056H42.0233V28.6306H52.3705C57.8744 28.6306 60.7364 26.5622 60.7364 22.4255C60.7364 19.7039 59.1953 18.1799 57.1039 17.309ZM94.7503 18.1799C92.1085 17.7444 91.448 17.4179 91.448 16.6558C91.448 16.2204 91.5581 15.8938 91.7783 15.6761C92.4387 15.4583 93.5395 15.3495 94.5302 15.3495C96.6217 15.3495 98.493 15.6761 100.034 16.1115V11.8659C98.8232 11.2127 96.8418 10.6684 94.0899 10.6684C89.4666 10.6684 86.4945 12.8457 86.4945 16.547C86.4945 20.1394 88.586 21.228 92.5488 21.8812C95.4108 22.4255 96.0713 22.7521 96.0713 23.623C96.0713 24.0584 95.9612 24.2761 95.8511 24.4939C95.1907 24.7116 94.0899 24.9293 92.6589 24.9293C90.6775 24.9293 88.3659 24.4939 87.0449 24.0584V28.0863C88.4759 28.6306 90.7876 28.9572 92.879 28.9572C97.8325 28.9572 101.025 27.4331 101.025 23.5141C101.025 20.1394 98.9333 18.9419 94.7503 18.1799ZM113.794 24.385C113.133 24.8204 112.363 25.0382 111.372 25.0382C109.281 25.0382 108.07 23.2964 108.07 20.2483C108.07 18.5065 108.4 16.9824 109.06 16.2204C109.721 15.6761 110.491 15.4583 111.482 15.4583C113.684 15.4583 114.674 17.2001 114.674 19.8128C114.784 21.6635 114.454 23.2964 113.794 24.385ZM111.812 10.6684C105.758 10.6684 103.006 14.6963 103.006 20.2483C103.006 25.6913 106.198 28.9572 111.262 28.9572C117.316 28.9572 119.958 24.9293 119.958 19.4862C119.958 14.0431 116.876 10.6684 111.812 10.6684Z" fill="white"/>
</svg>
