<?xml version="1.0" encoding="utf-8"?>
<!-- Generator: Adobe Illustrator 25.4.1, SVG Export Plug-In . SVG Version: 6.00 Build 0)  -->
<svg version="1.1" id="Capa_1" xmlns="http://www.w3.org/2000/svg" xmlns:xlink="http://www.w3.org/1999/xlink" x="0px" y="0px"
	 viewBox="0 0 792 612" style="enable-background:new 0 0 792 612;" xml:space="preserve">
<style type="text/css">
	.st0{fill:#FFFFFF;}
</style>
<g>
	<circle class="st0" cx="455.8" cy="367.9" r="12.4"/>
	<path class="st0" d="M444.7,307l-23-57.4c-4.2-10.5-14.5-18-26.5-18s-22.3,7.4-26.5,18l-40.6,101.3c-4.4,11,0.9,23.5,11.9,27.9
		c2.6,1,5.3,1.5,8,1.5h47.3c29.5,0,53.4-23.9,53.4-53.4C448.6,319.9,447.2,313.2,444.7,307z M395.2,355.6
		c-15.8,0-28.6-12.8-28.6-28.6c0-15.8,12.8-28.6,28.6-28.6s28.6,12.8,28.6,28.6C423.8,342.8,411,355.6,395.2,355.6z"/>
</g>
</svg>
